<svg xmlns="http://www.w3.org/2000/svg" viewBox="0 0 64 64"><path fill="#222" d="M32 26c-7 0-13.7-1.15-18.32-3.17C8.16 20.44 7 17.52 7 15.5 7 8.61 19.58 5 32 5S57 8.61 57 15.5c0 2-1.16 4.94-6.68 7.33C45.7 24.85 39 26 32 26zM32 9c-12.82 0-21 3.85-21 6.5 0 .87 1.12 2.3 4.28 3.67C19.41 21 25.5 22 32 22s12.59-1 16.72-2.83C51.88 17.8 53 16.37 53 15.5 53 12.85 44.82 9 32 9zM32 59C19.58 59 7 55.39 7 48.5v-11a2 2 0 0 1 4 0c0 .87 1.12 2.3 4.28 3.67C19.41 43 25.5 44 32 44s12.59-1 16.72-2.83C51.88 39.8 53 38.37 53 37.5a2 2 0 0 1 4 0v11C57 55.39 44.42 59 32 59zM11 43.43V48.5c0 2.65 8.18 6.5 21 6.5s21-3.85 21-6.5V43.43a18.91 18.91 0 0 1-2.68 1.4C45.7 46.85 39 48 32 48s-13.7-1.15-18.32-3.17A18.91 18.91 0 0 1 11 43.43z"/><path fill="#222" d="M55 51a2 2 0 0 1-2-2v-.5a2 2 0 0 1 4 0V49A2 2 0 0 1 55 51zM55 28.5a2 2 0 0 1-2-2V16a2 2 0 0 1 4 0V26.5A2 2 0 0 1 55 28.5zM9 51a2 2 0 0 1-2-2v-.5a2 2 0 0 1 4 0V49A2 2 0 0 1 9 51zM32 26c-7 0-13.7-1.15-18.32-3.17a2 2 0 0 1 1.6-3.66C19.41 21 25.5 22 32 22s12.59-1 16.72-2.83a2 2 0 0 1 1.6 3.66C45.7 24.85 39 26 32 26z"/><path fill="#222" d="M32,37c-7,0-13.7-1.15-18.32-3.17C8.16,31.44,7,28.52,7,26.5a2,2,0,0,1,4,0c0,.87,1.12,2.3,4.28,3.67C19.41,32,25.5,33,32,33s12.59-1,16.72-2.83C51.88,28.8,53,27.37,53,26.5a2,2,0,0,1,4,0c0,2-1.16,4.94-6.68,7.33C45.7,35.85,39,37,32,37Z"/><path fill="#222" d="M32,48c-7,0-13.7-1.15-18.32-3.17C8.16,42.44,7,39.52,7,37.5v-11a2,2,0,0,1,4,0c0,.87,1.12,2.3,4.28,3.67C19.41,32,25.5,33,32,33s12.59-1,16.72-2.83C51.88,28.8,53,27.37,53,26.5a2,2,0,0,1,4,0v11c0,2-1.16,4.94-6.68,7.33C45.7,46.85,39,48,32,48ZM11,32.43V37.5c0,.87,1.12,2.3,4.28,3.67C19.41,43,25.5,44,32,44s12.59-1,16.72-2.83C51.88,39.8,53,38.37,53,37.5V32.43a18.91,18.91,0,0,1-2.68,1.4C45.7,35.85,39,37,32,37s-13.7-1.15-18.32-3.17A18.91,18.91,0,0,1,11,32.43Z"/><path fill="#222" d="M9,28.5a2,2,0,0,1-2-2V16a2,2,0,0,1,4,0V26.5A2,2,0,0,1,9,28.5Z"/></svg>